<?xml version="1.0" encoding="UTF-8"?>
<svg id="Calque_2" xmlns="http://www.w3.org/2000/svg" version="1.1" viewBox="0 0 283 61">
  <!-- Generator: Adobe Illustrator 29.6.1, SVG Export Plug-In . SVG Version: 2.1.1 Build 9)  -->
  <defs>
    <style>
      .st0, .st1 {
        fill: #29428a;
      }

      .st2 {
        fill: #c33633;
      }

      .st2, .st3, .st1 {
        isolation: isolate;
      }

      .st4 {
        fill: #fff;
      }

      .st5 {
        fill: none;
        stroke: #fff;
        stroke-miterlimit: 10;
      }
    </style>
  </defs>
  <path class="st5" d="M173.87,3.61"/>
  <g class="st3">
    <g>
      <rect class="st0" x="13.13" y="4.22" width="30.5" height="7.93"/>
      <rect class="st0" x="13.13" y="50.46" width="30.5" height="7.93"/>
      <rect class="st0" x="13.13" y="27.34" width="26.53" height="7.93"/>
    </g>
    <g>
      <rect class="st0" x="239.37" y="4.22" width="30.5" height="7.93"/>
      <rect class="st0" x="239.37" y="50.46" width="30.5" height="7.93"/>
      <rect class="st0" x="239.37" y="27.34" width="26.53" height="7.93"/>
    </g>
    <path class="st0" d="M122.56,8.19l-2.64,6s-6.77-7.51-18.58-3c-12.47,6.3-12.32,26.24,4.13,29.83,0,0,9.15,2.35,14.53-4.21l2.56,5.86s-9.08,9.33-23.45,2.81-17.37-26.72-5.34-36.96c8.67-7.07,21.94-5.59,28.79-.33Z"/>
    <path class="st0" d="M128.87,9.77h16.51s7.27.08,7.18,7.93c-.08,7.84-4.87,8.06-6.44,8.06h-17.26v22.04h6.28v-15.24h6.52l10.9,14.78h7.68l-11.48-15.61s10.97-.8,10.07-16.35c0-12.3-17.42-11.66-17.42-11.66h-12.55"/>
    <rect class="st0" x="167.98" y="4.26" width="5.89" height="42.83"/>
    <g>
      <polygon class="st0" points="187.24 47.09 180.64 47.09 185.81 18.14 190.77 27.49 187.24 47.09"/>
      <polygon class="st0" points="223.9 47.09 230.51 47.09 225.33 18.14 220.38 27.49 223.9 47.09"/>
      <polygon class="st0" points="222.25 2.61 224.23 12.85 205.3 48.74 186.69 12.52 188.34 2.61 205.46 35.53 222.25 2.61"/>
    </g>
    <path class="st0" d="M75.72,13.95l3.08-5.77s-4.17-3.6-8.37-4.47c-4.63-.96-12.11-1.88-17.61,3.3s-4.18,12.55-1.1,16.07c1.54,1.76,4.38,2.97,6.83,3.74,1.8.57,3.65.95,5.51,1.23,3.1.47,12.22,2.4,10.01,8.46-1.52,4.16-4.74,4.99-8.03,4.97-5.64-.04-11.06-2.26-15.28-6-.08-.07-.17-.15-.25-.22l-2.97,5.44s7.03,8.43,18.83,7.09c12.99-1.48,15.85-8.71,13.76-16.49s-12.77-8.77-12.77-8.77c0,0-12.88-.88-11.56-8.59,1.32-7.71,17.39-3.96,19.93,0Z"/>
  </g>
  <g>
    <rect class="st1" x="47.54" y="50.46" width="62.31" height="7.93"/>
    <rect class="st4" x="110.08" y="50.46" width="62.31" height="7.93"/>
    <rect class="st2" x="172.39" y="50.46" width="62.31" height="7.93"/>
  </g>
</svg>